<?xml version="1.0" encoding="utf-8"?>
<!DOCTYPE svg PUBLIC "-//W3C//DTD SVG 1.1//EN" "http://www.w3.org/Graphics/SVG/1.1/DTD/svg11.dtd">
<svg version="1.1" id="Layer_1" xmlns="http://www.w3.org/2000/svg" xmlns:xlink="http://www.w3.org/1999/xlink" x="0px" y="0px"
width="1147px" height="1147px" viewBox="0 0 1147 1147" enable-background="new 0 0 1147 1147" xml:space="preserve">
<rect x="0" y="0" width="1147" height="1147" fill="rgb(255,255,255)" /><g transform="translate(62,62)"><g transform="translate(341,0) scale(0.31,0.31)"><g transform="" style="fill: rgb(226, 73, 73);">
<polygon points="0,50 50,100 100,50 50,0"/>
</g></g><g transform="translate(434,0) scale(0.31,0.31)"><g transform="" style="fill: rgb(226, 73, 73);">
<polygon points="0,50 50,100 100,50 50,0"/>
</g></g><g transform="translate(465,0) scale(0.31,0.31)"><g transform="" style="fill: rgb(226, 73, 73);">
<polygon points="0,50 50,100 100,50 50,0"/>
</g></g><g transform="translate(496,0) scale(0.31,0.31)"><g transform="" style="fill: rgb(226, 73, 73);">
<polygon points="0,50 50,100 100,50 50,0"/>
</g></g><g transform="translate(558,0) scale(0.31,0.31)"><g transform="" style="fill: rgb(226, 73, 73);">
<polygon points="0,50 50,100 100,50 50,0"/>
</g></g><g transform="translate(589,0) scale(0.31,0.31)"><g transform="" style="fill: rgb(226, 73, 73);">
<polygon points="0,50 50,100 100,50 50,0"/>
</g></g><g transform="translate(651,0) scale(0.31,0.31)"><g transform="" style="fill: rgb(226, 73, 73);">
<polygon points="0,50 50,100 100,50 50,0"/>
</g></g><g transform="translate(682,0) scale(0.31,0.31)"><g transform="" style="fill: rgb(226, 73, 73);">
<polygon points="0,50 50,100 100,50 50,0"/>
</g></g><g transform="translate(713,0) scale(0.31,0.31)"><g transform="" style="fill: rgb(226, 73, 73);">
<polygon points="0,50 50,100 100,50 50,0"/>
</g></g><g transform="translate(310,31) scale(0.31,0.31)"><g transform="" style="fill: rgb(226, 73, 73);">
<polygon points="0,50 50,100 100,50 50,0"/>
</g></g><g transform="translate(465,31) scale(0.31,0.31)"><g transform="" style="fill: rgb(226, 73, 73);">
<polygon points="0,50 50,100 100,50 50,0"/>
</g></g><g transform="translate(527,31) scale(0.31,0.31)"><g transform="" style="fill: rgb(226, 73, 73);">
<polygon points="0,50 50,100 100,50 50,0"/>
</g></g><g transform="translate(620,31) scale(0.31,0.31)"><g transform="" style="fill: rgb(226, 73, 73);">
<polygon points="0,50 50,100 100,50 50,0"/>
</g></g><g transform="translate(651,31) scale(0.31,0.31)"><g transform="" style="fill: rgb(226, 73, 73);">
<polygon points="0,50 50,100 100,50 50,0"/>
</g></g><g transform="translate(713,31) scale(0.31,0.31)"><g transform="" style="fill: rgb(226, 73, 73);">
<polygon points="0,50 50,100 100,50 50,0"/>
</g></g><g transform="translate(372,62) scale(0.31,0.31)"><g transform="" style="fill: rgb(226, 73, 73);">
<polygon points="0,50 50,100 100,50 50,0"/>
</g></g><g transform="translate(434,62) scale(0.31,0.31)"><g transform="" style="fill: rgb(226, 73, 73);">
<polygon points="0,50 50,100 100,50 50,0"/>
</g></g><g transform="translate(465,62) scale(0.31,0.31)"><g transform="" style="fill: rgb(226, 73, 73);">
<polygon points="0,50 50,100 100,50 50,0"/>
</g></g><g transform="translate(527,62) scale(0.31,0.31)"><g transform="" style="fill: rgb(226, 73, 73);">
<polygon points="0,50 50,100 100,50 50,0"/>
</g></g><g transform="translate(589,62) scale(0.31,0.31)"><g transform="" style="fill: rgb(226, 73, 73);">
<polygon points="0,50 50,100 100,50 50,0"/>
</g></g><g transform="translate(620,62) scale(0.31,0.31)"><g transform="" style="fill: rgb(226, 73, 73);">
<polygon points="0,50 50,100 100,50 50,0"/>
</g></g><g transform="translate(682,62) scale(0.31,0.31)"><g transform="" style="fill: rgb(226, 73, 73);">
<polygon points="0,50 50,100 100,50 50,0"/>
</g></g><g transform="translate(403,93) scale(0.31,0.31)"><g transform="" style="fill: rgb(226, 73, 73);">
<polygon points="0,50 50,100 100,50 50,0"/>
</g></g><g transform="translate(527,93) scale(0.31,0.31)"><g transform="" style="fill: rgb(226, 73, 73);">
<polygon points="0,50 50,100 100,50 50,0"/>
</g></g><g transform="translate(589,93) scale(0.31,0.31)"><g transform="" style="fill: rgb(226, 73, 73);">
<polygon points="0,50 50,100 100,50 50,0"/>
</g></g><g transform="translate(651,93) scale(0.31,0.31)"><g transform="" style="fill: rgb(226, 73, 73);">
<polygon points="0,50 50,100 100,50 50,0"/>
</g></g><g transform="translate(279,124) scale(0.31,0.31)"><g transform="" style="fill: rgb(226, 73, 73);">
<polygon points="0,50 50,100 100,50 50,0"/>
</g></g><g transform="translate(310,124) scale(0.31,0.31)"><g transform="" style="fill: rgb(226, 73, 73);">
<polygon points="0,50 50,100 100,50 50,0"/>
</g></g><g transform="translate(341,124) scale(0.31,0.31)"><g transform="" style="fill: rgb(226, 73, 73);">
<polygon points="0,50 50,100 100,50 50,0"/>
</g></g><g transform="translate(372,124) scale(0.31,0.31)"><g transform="" style="fill: rgb(226, 73, 73);">
<polygon points="0,50 50,100 100,50 50,0"/>
</g></g><g transform="translate(496,124) scale(0.31,0.31)"><g transform="" style="fill: rgb(226, 73, 73);">
<polygon points="0,50 50,100 100,50 50,0"/>
</g></g><g transform="translate(527,124) scale(0.31,0.31)"><g transform="" style="fill: rgb(226, 73, 73);">
<polygon points="0,50 50,100 100,50 50,0"/>
</g></g><g transform="translate(589,124) scale(0.31,0.31)"><g transform="" style="fill: rgb(226, 73, 73);">
<polygon points="0,50 50,100 100,50 50,0"/>
</g></g><g transform="translate(713,124) scale(0.31,0.31)"><g transform="" style="fill: rgb(226, 73, 73);">
<polygon points="0,50 50,100 100,50 50,0"/>
</g></g><g transform="translate(248,155) scale(0.31,0.31)"><g transform="" style="fill: rgb(226, 73, 73);">
<polygon points="0,50 50,100 100,50 50,0"/>
</g></g><g transform="translate(310,155) scale(0.31,0.31)"><g transform="" style="fill: rgb(226, 73, 73);">
<polygon points="0,50 50,100 100,50 50,0"/>
</g></g><g transform="translate(341,155) scale(0.31,0.31)"><g transform="" style="fill: rgb(226, 73, 73);">
<polygon points="0,50 50,100 100,50 50,0"/>
</g></g><g transform="translate(372,155) scale(0.31,0.31)"><g transform="" style="fill: rgb(226, 73, 73);">
<polygon points="0,50 50,100 100,50 50,0"/>
</g></g><g transform="translate(620,155) scale(0.31,0.31)"><g transform="" style="fill: rgb(226, 73, 73);">
<polygon points="0,50 50,100 100,50 50,0"/>
</g></g><g transform="translate(651,155) scale(0.31,0.31)"><g transform="" style="fill: rgb(226, 73, 73);">
<polygon points="0,50 50,100 100,50 50,0"/>
</g></g><g transform="translate(744,155) scale(0.31,0.31)"><g transform="" style="fill: rgb(226, 73, 73);">
<polygon points="0,50 50,100 100,50 50,0"/>
</g></g><g transform="translate(248,186) scale(0.31,0.31)"><g transform="" style="fill: rgb(226, 73, 73);">
<polygon points="0,50 50,100 100,50 50,0"/>
</g></g><g transform="translate(310,186) scale(0.31,0.31)"><g transform="" style="fill: rgb(226, 73, 73);">
<polygon points="0,50 50,100 100,50 50,0"/>
</g></g><g transform="translate(372,186) scale(0.31,0.31)"><g transform="" style="fill: rgb(226, 73, 73);">
<polygon points="0,50 50,100 100,50 50,0"/>
</g></g><g transform="translate(434,186) scale(0.31,0.31)"><g transform="" style="fill: rgb(226, 73, 73);">
<polygon points="0,50 50,100 100,50 50,0"/>
</g></g><g transform="translate(496,186) scale(0.31,0.31)"><g transform="" style="fill: rgb(226, 73, 73);">
<polygon points="0,50 50,100 100,50 50,0"/>
</g></g><g transform="translate(558,186) scale(0.31,0.31)"><g transform="" style="fill: rgb(226, 73, 73);">
<polygon points="0,50 50,100 100,50 50,0"/>
</g></g><g transform="translate(620,186) scale(0.31,0.31)"><g transform="" style="fill: rgb(226, 73, 73);">
<polygon points="0,50 50,100 100,50 50,0"/>
</g></g><g transform="translate(682,186) scale(0.31,0.31)"><g transform="" style="fill: rgb(226, 73, 73);">
<polygon points="0,50 50,100 100,50 50,0"/>
</g></g><g transform="translate(744,186) scale(0.31,0.31)"><g transform="" style="fill: rgb(226, 73, 73);">
<polygon points="0,50 50,100 100,50 50,0"/>
</g></g><g transform="translate(279,217) scale(0.31,0.31)"><g transform="" style="fill: rgb(226, 73, 73);">
<polygon points="0,50 50,100 100,50 50,0"/>
</g></g><g transform="translate(434,217) scale(0.31,0.31)"><g transform="" style="fill: rgb(226, 73, 73);">
<polygon points="0,50 50,100 100,50 50,0"/>
</g></g><g transform="translate(527,217) scale(0.31,0.31)"><g transform="" style="fill: rgb(226, 73, 73);">
<polygon points="0,50 50,100 100,50 50,0"/>
</g></g><g transform="translate(558,217) scale(0.31,0.31)"><g transform="" style="fill: rgb(226, 73, 73);">
<polygon points="0,50 50,100 100,50 50,0"/>
</g></g><g transform="translate(589,217) scale(0.31,0.31)"><g transform="" style="fill: rgb(226, 73, 73);">
<polygon points="0,50 50,100 100,50 50,0"/>
</g></g><g transform="translate(620,217) scale(0.31,0.31)"><g transform="" style="fill: rgb(226, 73, 73);">
<polygon points="0,50 50,100 100,50 50,0"/>
</g></g><g transform="translate(651,217) scale(0.31,0.31)"><g transform="" style="fill: rgb(226, 73, 73);">
<polygon points="0,50 50,100 100,50 50,0"/>
</g></g><g transform="translate(713,217) scale(0.31,0.31)"><g transform="" style="fill: rgb(226, 73, 73);">
<polygon points="0,50 50,100 100,50 50,0"/>
</g></g><g transform="translate(744,217) scale(0.31,0.31)"><g transform="" style="fill: rgb(226, 73, 73);">
<polygon points="0,50 50,100 100,50 50,0"/>
</g></g><g transform="translate(0,248) scale(0.31,0.31)"><g transform="" style="fill: rgb(226, 73, 73);">
<polygon points="0,50 50,100 100,50 50,0"/>
</g></g><g transform="translate(93,248) scale(0.31,0.31)"><g transform="" style="fill: rgb(226, 73, 73);">
<polygon points="0,50 50,100 100,50 50,0"/>
</g></g><g transform="translate(155,248) scale(0.31,0.31)"><g transform="" style="fill: rgb(226, 73, 73);">
<polygon points="0,50 50,100 100,50 50,0"/>
</g></g><g transform="translate(186,248) scale(0.31,0.31)"><g transform="" style="fill: rgb(226, 73, 73);">
<polygon points="0,50 50,100 100,50 50,0"/>
</g></g><g transform="translate(248,248) scale(0.31,0.31)"><g transform="" style="fill: rgb(226, 73, 73);">
<polygon points="0,50 50,100 100,50 50,0"/>
</g></g><g transform="translate(279,248) scale(0.31,0.31)"><g transform="" style="fill: rgb(226, 73, 73);">
<polygon points="0,50 50,100 100,50 50,0"/>
</g></g><g transform="translate(310,248) scale(0.31,0.31)"><g transform="" style="fill: rgb(226, 73, 73);">
<polygon points="0,50 50,100 100,50 50,0"/>
</g></g><g transform="translate(372,248) scale(0.31,0.31)"><g transform="" style="fill: rgb(226, 73, 73);">
<polygon points="0,50 50,100 100,50 50,0"/>
</g></g><g transform="translate(403,248) scale(0.31,0.31)"><g transform="" style="fill: rgb(226, 73, 73);">
<polygon points="0,50 50,100 100,50 50,0"/>
</g></g><g transform="translate(434,248) scale(0.31,0.31)"><g transform="" style="fill: rgb(226, 73, 73);">
<polygon points="0,50 50,100 100,50 50,0"/>
</g></g><g transform="translate(465,248) scale(0.31,0.31)"><g transform="" style="fill: rgb(226, 73, 73);">
<polygon points="0,50 50,100 100,50 50,0"/>
</g></g><g transform="translate(496,248) scale(0.31,0.31)"><g transform="" style="fill: rgb(226, 73, 73);">
<polygon points="0,50 50,100 100,50 50,0"/>
</g></g><g transform="translate(589,248) scale(0.31,0.31)"><g transform="" style="fill: rgb(226, 73, 73);">
<polygon points="0,50 50,100 100,50 50,0"/>
</g></g><g transform="translate(651,248) scale(0.31,0.31)"><g transform="" style="fill: rgb(226, 73, 73);">
<polygon points="0,50 50,100 100,50 50,0"/>
</g></g><g transform="translate(744,248) scale(0.31,0.31)"><g transform="" style="fill: rgb(226, 73, 73);">
<polygon points="0,50 50,100 100,50 50,0"/>
</g></g><g transform="translate(775,248) scale(0.31,0.31)"><g transform="" style="fill: rgb(226, 73, 73);">
<polygon points="0,50 50,100 100,50 50,0"/>
</g></g><g transform="translate(837,248) scale(0.31,0.31)"><g transform="" style="fill: rgb(226, 73, 73);">
<polygon points="0,50 50,100 100,50 50,0"/>
</g></g><g transform="translate(62,279) scale(0.31,0.31)"><g transform="" style="fill: rgb(226, 73, 73);">
<polygon points="0,50 50,100 100,50 50,0"/>
</g></g><g transform="translate(93,279) scale(0.31,0.31)"><g transform="" style="fill: rgb(226, 73, 73);">
<polygon points="0,50 50,100 100,50 50,0"/>
</g></g><g transform="translate(217,279) scale(0.31,0.31)"><g transform="" style="fill: rgb(226, 73, 73);">
<polygon points="0,50 50,100 100,50 50,0"/>
</g></g><g transform="translate(279,279) scale(0.31,0.31)"><g transform="" style="fill: rgb(226, 73, 73);">
<polygon points="0,50 50,100 100,50 50,0"/>
</g></g><g transform="translate(310,279) scale(0.31,0.31)"><g transform="" style="fill: rgb(226, 73, 73);">
<polygon points="0,50 50,100 100,50 50,0"/>
</g></g><g transform="translate(341,279) scale(0.31,0.31)"><g transform="" style="fill: rgb(226, 73, 73);">
<polygon points="0,50 50,100 100,50 50,0"/>
</g></g><g transform="translate(372,279) scale(0.31,0.31)"><g transform="" style="fill: rgb(226, 73, 73);">
<polygon points="0,50 50,100 100,50 50,0"/>
</g></g><g transform="translate(434,279) scale(0.31,0.31)"><g transform="" style="fill: rgb(226, 73, 73);">
<polygon points="0,50 50,100 100,50 50,0"/>
</g></g><g transform="translate(496,279) scale(0.31,0.31)"><g transform="" style="fill: rgb(226, 73, 73);">
<polygon points="0,50 50,100 100,50 50,0"/>
</g></g><g transform="translate(558,279) scale(0.31,0.31)"><g transform="" style="fill: rgb(226, 73, 73);">
<polygon points="0,50 50,100 100,50 50,0"/>
</g></g><g transform="translate(620,279) scale(0.31,0.31)"><g transform="" style="fill: rgb(226, 73, 73);">
<polygon points="0,50 50,100 100,50 50,0"/>
</g></g><g transform="translate(682,279) scale(0.31,0.31)"><g transform="" style="fill: rgb(226, 73, 73);">
<polygon points="0,50 50,100 100,50 50,0"/>
</g></g><g transform="translate(744,279) scale(0.31,0.31)"><g transform="" style="fill: rgb(226, 73, 73);">
<polygon points="0,50 50,100 100,50 50,0"/>
</g></g><g transform="translate(775,279) scale(0.31,0.31)"><g transform="" style="fill: rgb(226, 73, 73);">
<polygon points="0,50 50,100 100,50 50,0"/>
</g></g><g transform="translate(806,279) scale(0.31,0.31)"><g transform="" style="fill: rgb(226, 73, 73);">
<polygon points="0,50 50,100 100,50 50,0"/>
</g></g><g transform="translate(837,279) scale(0.31,0.31)"><g transform="" style="fill: rgb(226, 73, 73);">
<polygon points="0,50 50,100 100,50 50,0"/>
</g></g><g transform="translate(961,279) scale(0.31,0.31)"><g transform="" style="fill: rgb(226, 73, 73);">
<polygon points="0,50 50,100 100,50 50,0"/>
</g></g><g transform="translate(992,279) scale(0.31,0.31)"><g transform="" style="fill: rgb(226, 73, 73);">
<polygon points="0,50 50,100 100,50 50,0"/>
</g></g><g transform="translate(0,310) scale(0.31,0.31)"><g transform="" style="fill: rgb(226, 73, 73);">
<polygon points="0,50 50,100 100,50 50,0"/>
</g></g><g transform="translate(155,310) scale(0.31,0.31)"><g transform="" style="fill: rgb(226, 73, 73);">
<polygon points="0,50 50,100 100,50 50,0"/>
</g></g><g transform="translate(186,310) scale(0.31,0.31)"><g transform="" style="fill: rgb(226, 73, 73);">
<polygon points="0,50 50,100 100,50 50,0"/>
</g></g><g transform="translate(217,310) scale(0.31,0.31)"><g transform="" style="fill: rgb(226, 73, 73);">
<polygon points="0,50 50,100 100,50 50,0"/>
</g></g><g transform="translate(279,310) scale(0.31,0.31)"><g transform="" style="fill: rgb(226, 73, 73);">
<polygon points="0,50 50,100 100,50 50,0"/>
</g></g><g transform="translate(341,310) scale(0.31,0.31)"><g transform="" style="fill: rgb(226, 73, 73);">
<polygon points="0,50 50,100 100,50 50,0"/>
</g></g><g transform="translate(372,310) scale(0.31,0.31)"><g transform="" style="fill: rgb(226, 73, 73);">
<polygon points="0,50 50,100 100,50 50,0"/>
</g></g><g transform="translate(496,310) scale(0.31,0.31)"><g transform="" style="fill: rgb(226, 73, 73);">
<polygon points="0,50 50,100 100,50 50,0"/>
</g></g><g transform="translate(527,310) scale(0.31,0.31)"><g transform="" style="fill: rgb(226, 73, 73);">
<polygon points="0,50 50,100 100,50 50,0"/>
</g></g><g transform="translate(589,310) scale(0.31,0.31)"><g transform="" style="fill: rgb(226, 73, 73);">
<polygon points="0,50 50,100 100,50 50,0"/>
</g></g><g transform="translate(620,310) scale(0.31,0.31)"><g transform="" style="fill: rgb(226, 73, 73);">
<polygon points="0,50 50,100 100,50 50,0"/>
</g></g><g transform="translate(651,310) scale(0.31,0.31)"><g transform="" style="fill: rgb(226, 73, 73);">
<polygon points="0,50 50,100 100,50 50,0"/>
</g></g><g transform="translate(682,310) scale(0.31,0.31)"><g transform="" style="fill: rgb(226, 73, 73);">
<polygon points="0,50 50,100 100,50 50,0"/>
</g></g><g transform="translate(775,310) scale(0.31,0.31)"><g transform="" style="fill: rgb(226, 73, 73);">
<polygon points="0,50 50,100 100,50 50,0"/>
</g></g><g transform="translate(837,310) scale(0.31,0.31)"><g transform="" style="fill: rgb(226, 73, 73);">
<polygon points="0,50 50,100 100,50 50,0"/>
</g></g><g transform="translate(868,310) scale(0.31,0.31)"><g transform="" style="fill: rgb(226, 73, 73);">
<polygon points="0,50 50,100 100,50 50,0"/>
</g></g><g transform="translate(930,310) scale(0.31,0.31)"><g transform="" style="fill: rgb(226, 73, 73);">
<polygon points="0,50 50,100 100,50 50,0"/>
</g></g><g transform="translate(992,310) scale(0.31,0.31)"><g transform="" style="fill: rgb(226, 73, 73);">
<polygon points="0,50 50,100 100,50 50,0"/>
</g></g><g transform="translate(0,341) scale(0.31,0.31)"><g transform="" style="fill: rgb(226, 73, 73);">
<polygon points="0,50 50,100 100,50 50,0"/>
</g></g><g transform="translate(31,341) scale(0.31,0.31)"><g transform="" style="fill: rgb(226, 73, 73);">
<polygon points="0,50 50,100 100,50 50,0"/>
</g></g><g transform="translate(62,341) scale(0.31,0.31)"><g transform="" style="fill: rgb(226, 73, 73);">
<polygon points="0,50 50,100 100,50 50,0"/>
</g></g><g transform="translate(124,341) scale(0.31,0.31)"><g transform="" style="fill: rgb(226, 73, 73);">
<polygon points="0,50 50,100 100,50 50,0"/>
</g></g><g transform="translate(155,341) scale(0.31,0.31)"><g transform="" style="fill: rgb(226, 73, 73);">
<polygon points="0,50 50,100 100,50 50,0"/>
</g></g><g transform="translate(217,341) scale(0.31,0.31)"><g transform="" style="fill: rgb(226, 73, 73);">
<polygon points="0,50 50,100 100,50 50,0"/>
</g></g><g transform="translate(279,341) scale(0.31,0.31)"><g transform="" style="fill: rgb(226, 73, 73);">
<polygon points="0,50 50,100 100,50 50,0"/>
</g></g><g transform="translate(341,341) scale(0.31,0.31)"><g transform="" style="fill: rgb(226, 73, 73);">
<polygon points="0,50 50,100 100,50 50,0"/>
</g></g><g transform="translate(434,341) scale(0.31,0.31)"><g transform="" style="fill: rgb(226, 73, 73);">
<polygon points="0,50 50,100 100,50 50,0"/>
</g></g><g transform="translate(465,341) scale(0.31,0.31)"><g transform="" style="fill: rgb(226, 73, 73);">
<polygon points="0,50 50,100 100,50 50,0"/>
</g></g><g transform="translate(527,341) scale(0.31,0.31)"><g transform="" style="fill: rgb(226, 73, 73);">
<polygon points="0,50 50,100 100,50 50,0"/>
</g></g><g transform="translate(713,341) scale(0.31,0.31)"><g transform="" style="fill: rgb(226, 73, 73);">
<polygon points="0,50 50,100 100,50 50,0"/>
</g></g><g transform="translate(744,341) scale(0.31,0.31)"><g transform="" style="fill: rgb(226, 73, 73);">
<polygon points="0,50 50,100 100,50 50,0"/>
</g></g><g transform="translate(806,341) scale(0.31,0.31)"><g transform="" style="fill: rgb(226, 73, 73);">
<polygon points="0,50 50,100 100,50 50,0"/>
</g></g><g transform="translate(868,341) scale(0.31,0.31)"><g transform="" style="fill: rgb(226, 73, 73);">
<polygon points="0,50 50,100 100,50 50,0"/>
</g></g><g transform="translate(899,341) scale(0.31,0.31)"><g transform="" style="fill: rgb(226, 73, 73);">
<polygon points="0,50 50,100 100,50 50,0"/>
</g></g><g transform="translate(961,341) scale(0.31,0.31)"><g transform="" style="fill: rgb(226, 73, 73);">
<polygon points="0,50 50,100 100,50 50,0"/>
</g></g><g transform="translate(0,372) scale(0.31,0.31)"><g transform="" style="fill: rgb(226, 73, 73);">
<polygon points="0,50 50,100 100,50 50,0"/>
</g></g><g transform="translate(31,372) scale(0.31,0.31)"><g transform="" style="fill: rgb(226, 73, 73);">
<polygon points="0,50 50,100 100,50 50,0"/>
</g></g><g transform="translate(62,372) scale(0.31,0.31)"><g transform="" style="fill: rgb(226, 73, 73);">
<polygon points="0,50 50,100 100,50 50,0"/>
</g></g><g transform="translate(155,372) scale(0.31,0.31)"><g transform="" style="fill: rgb(226, 73, 73);">
<polygon points="0,50 50,100 100,50 50,0"/>
</g></g><g transform="translate(186,372) scale(0.31,0.31)"><g transform="" style="fill: rgb(226, 73, 73);">
<polygon points="0,50 50,100 100,50 50,0"/>
</g></g><g transform="translate(248,372) scale(0.31,0.31)"><g transform="" style="fill: rgb(226, 73, 73);">
<polygon points="0,50 50,100 100,50 50,0"/>
</g></g><g transform="translate(279,372) scale(0.31,0.31)"><g transform="" style="fill: rgb(226, 73, 73);">
<polygon points="0,50 50,100 100,50 50,0"/>
</g></g><g transform="translate(310,372) scale(0.31,0.31)"><g transform="" style="fill: rgb(226, 73, 73);">
<polygon points="0,50 50,100 100,50 50,0"/>
</g></g><g transform="translate(372,372) scale(0.31,0.31)"><g transform="" style="fill: rgb(226, 73, 73);">
<polygon points="0,50 50,100 100,50 50,0"/>
</g></g><g transform="translate(465,372) scale(0.31,0.31)"><g transform="" style="fill: rgb(226, 73, 73);">
<polygon points="0,50 50,100 100,50 50,0"/>
</g></g><g transform="translate(589,372) scale(0.31,0.31)"><g transform="" style="fill: rgb(226, 73, 73);">
<polygon points="0,50 50,100 100,50 50,0"/>
</g></g><g transform="translate(713,372) scale(0.31,0.31)"><g transform="" style="fill: rgb(226, 73, 73);">
<polygon points="0,50 50,100 100,50 50,0"/>
</g></g><g transform="translate(744,372) scale(0.31,0.31)"><g transform="" style="fill: rgb(226, 73, 73);">
<polygon points="0,50 50,100 100,50 50,0"/>
</g></g><g transform="translate(775,372) scale(0.31,0.31)"><g transform="" style="fill: rgb(226, 73, 73);">
<polygon points="0,50 50,100 100,50 50,0"/>
</g></g><g transform="translate(806,372) scale(0.31,0.31)"><g transform="" style="fill: rgb(226, 73, 73);">
<polygon points="0,50 50,100 100,50 50,0"/>
</g></g><g transform="translate(899,372) scale(0.31,0.31)"><g transform="" style="fill: rgb(226, 73, 73);">
<polygon points="0,50 50,100 100,50 50,0"/>
</g></g><g transform="translate(992,372) scale(0.31,0.31)"><g transform="" style="fill: rgb(226, 73, 73);">
<polygon points="0,50 50,100 100,50 50,0"/>
</g></g><g transform="translate(0,403) scale(0.31,0.31)"><g transform="" style="fill: rgb(226, 73, 73);">
<polygon points="0,50 50,100 100,50 50,0"/>
</g></g><g transform="translate(124,403) scale(0.31,0.31)"><g transform="" style="fill: rgb(226, 73, 73);">
<polygon points="0,50 50,100 100,50 50,0"/>
</g></g><g transform="translate(155,403) scale(0.31,0.31)"><g transform="" style="fill: rgb(226, 73, 73);">
<polygon points="0,50 50,100 100,50 50,0"/>
</g></g><g transform="translate(217,403) scale(0.31,0.31)"><g transform="" style="fill: rgb(226, 73, 73);">
<polygon points="0,50 50,100 100,50 50,0"/>
</g></g><g transform="translate(279,403) scale(0.31,0.31)"><g transform="" style="fill: rgb(226, 73, 73);">
<polygon points="0,50 50,100 100,50 50,0"/>
</g></g><g transform="translate(310,403) scale(0.31,0.31)"><g transform="" style="fill: rgb(226, 73, 73);">
<polygon points="0,50 50,100 100,50 50,0"/>
</g></g><g transform="translate(403,403) scale(0.31,0.31)"><g transform="" style="fill: rgb(226, 73, 73);">
<polygon points="0,50 50,100 100,50 50,0"/>
</g></g><g transform="translate(465,403) scale(0.31,0.31)"><g transform="" style="fill: rgb(226, 73, 73);">
<polygon points="0,50 50,100 100,50 50,0"/>
</g></g><g transform="translate(496,403) scale(0.31,0.31)"><g transform="" style="fill: rgb(226, 73, 73);">
<polygon points="0,50 50,100 100,50 50,0"/>
</g></g><g transform="translate(527,403) scale(0.31,0.31)"><g transform="" style="fill: rgb(226, 73, 73);">
<polygon points="0,50 50,100 100,50 50,0"/>
</g></g><g transform="translate(651,403) scale(0.31,0.31)"><g transform="" style="fill: rgb(226, 73, 73);">
<polygon points="0,50 50,100 100,50 50,0"/>
</g></g><g transform="translate(682,403) scale(0.31,0.31)"><g transform="" style="fill: rgb(226, 73, 73);">
<polygon points="0,50 50,100 100,50 50,0"/>
</g></g><g transform="translate(744,403) scale(0.31,0.31)"><g transform="" style="fill: rgb(226, 73, 73);">
<polygon points="0,50 50,100 100,50 50,0"/>
</g></g><g transform="translate(806,403) scale(0.31,0.31)"><g transform="" style="fill: rgb(226, 73, 73);">
<polygon points="0,50 50,100 100,50 50,0"/>
</g></g><g transform="translate(868,403) scale(0.31,0.31)"><g transform="" style="fill: rgb(226, 73, 73);">
<polygon points="0,50 50,100 100,50 50,0"/>
</g></g><g transform="translate(899,403) scale(0.31,0.31)"><g transform="" style="fill: rgb(226, 73, 73);">
<polygon points="0,50 50,100 100,50 50,0"/>
</g></g><g transform="translate(961,403) scale(0.31,0.31)"><g transform="" style="fill: rgb(226, 73, 73);">
<polygon points="0,50 50,100 100,50 50,0"/>
</g></g><g transform="translate(992,403) scale(0.31,0.31)"><g transform="" style="fill: rgb(226, 73, 73);">
<polygon points="0,50 50,100 100,50 50,0"/>
</g></g><g transform="translate(0,434) scale(0.31,0.31)"><g transform="" style="fill: rgb(226, 73, 73);">
<polygon points="0,50 50,100 100,50 50,0"/>
</g></g><g transform="translate(31,434) scale(0.31,0.31)"><g transform="" style="fill: rgb(226, 73, 73);">
<polygon points="0,50 50,100 100,50 50,0"/>
</g></g><g transform="translate(93,434) scale(0.31,0.31)"><g transform="" style="fill: rgb(226, 73, 73);">
<polygon points="0,50 50,100 100,50 50,0"/>
</g></g><g transform="translate(155,434) scale(0.31,0.31)"><g transform="" style="fill: rgb(226, 73, 73);">
<polygon points="0,50 50,100 100,50 50,0"/>
</g></g><g transform="translate(186,434) scale(0.31,0.31)"><g transform="" style="fill: rgb(226, 73, 73);">
<polygon points="0,50 50,100 100,50 50,0"/>
</g></g><g transform="translate(217,434) scale(0.31,0.31)"><g transform="" style="fill: rgb(226, 73, 73);">
<polygon points="0,50 50,100 100,50 50,0"/>
</g></g><g transform="translate(248,434) scale(0.31,0.31)"><g transform="" style="fill: rgb(226, 73, 73);">
<polygon points="0,50 50,100 100,50 50,0"/>
</g></g><g transform="translate(310,434) scale(0.31,0.31)"><g transform="" style="fill: rgb(226, 73, 73);">
<polygon points="0,50 50,100 100,50 50,0"/>
</g></g><g transform="translate(341,434) scale(0.31,0.31)"><g transform="" style="fill: rgb(226, 73, 73);">
<polygon points="0,50 50,100 100,50 50,0"/>
</g></g><g transform="translate(372,434) scale(0.31,0.31)"><g transform="" style="fill: rgb(226, 73, 73);">
<polygon points="0,50 50,100 100,50 50,0"/>
</g></g><g transform="translate(403,434) scale(0.31,0.31)"><g transform="" style="fill: rgb(226, 73, 73);">
<polygon points="0,50 50,100 100,50 50,0"/>
</g></g><g transform="translate(434,434) scale(0.31,0.31)"><g transform="" style="fill: rgb(226, 73, 73);">
<polygon points="0,50 50,100 100,50 50,0"/>
</g></g><g transform="translate(527,434) scale(0.31,0.31)"><g transform="" style="fill: rgb(226, 73, 73);">
<polygon points="0,50 50,100 100,50 50,0"/>
</g></g><g transform="translate(620,434) scale(0.31,0.31)"><g transform="" style="fill: rgb(226, 73, 73);">
<polygon points="0,50 50,100 100,50 50,0"/>
</g></g><g transform="translate(682,434) scale(0.31,0.31)"><g transform="" style="fill: rgb(226, 73, 73);">
<polygon points="0,50 50,100 100,50 50,0"/>
</g></g><g transform="translate(713,434) scale(0.31,0.31)"><g transform="" style="fill: rgb(226, 73, 73);">
<polygon points="0,50 50,100 100,50 50,0"/>
</g></g><g transform="translate(744,434) scale(0.31,0.31)"><g transform="" style="fill: rgb(226, 73, 73);">
<polygon points="0,50 50,100 100,50 50,0"/>
</g></g><g transform="translate(775,434) scale(0.31,0.31)"><g transform="" style="fill: rgb(226, 73, 73);">
<polygon points="0,50 50,100 100,50 50,0"/>
</g></g><g transform="translate(806,434) scale(0.31,0.31)"><g transform="" style="fill: rgb(226, 73, 73);">
<polygon points="0,50 50,100 100,50 50,0"/>
</g></g><g transform="translate(837,434) scale(0.31,0.31)"><g transform="" style="fill: rgb(226, 73, 73);">
<polygon points="0,50 50,100 100,50 50,0"/>
</g></g><g transform="translate(930,434) scale(0.31,0.31)"><g transform="" style="fill: rgb(226, 73, 73);">
<polygon points="0,50 50,100 100,50 50,0"/>
</g></g><g transform="translate(961,434) scale(0.31,0.31)"><g transform="" style="fill: rgb(226, 73, 73);">
<polygon points="0,50 50,100 100,50 50,0"/>
</g></g><g transform="translate(0,465) scale(0.31,0.31)"><g transform="" style="fill: rgb(226, 73, 73);">
<polygon points="0,50 50,100 100,50 50,0"/>
</g></g><g transform="translate(31,465) scale(0.31,0.31)"><g transform="" style="fill: rgb(226, 73, 73);">
<polygon points="0,50 50,100 100,50 50,0"/>
</g></g><g transform="translate(62,465) scale(0.31,0.31)"><g transform="" style="fill: rgb(226, 73, 73);">
<polygon points="0,50 50,100 100,50 50,0"/>
</g></g><g transform="translate(124,465) scale(0.31,0.31)"><g transform="" style="fill: rgb(226, 73, 73);">
<polygon points="0,50 50,100 100,50 50,0"/>
</g></g><g transform="translate(155,465) scale(0.31,0.31)"><g transform="" style="fill: rgb(226, 73, 73);">
<polygon points="0,50 50,100 100,50 50,0"/>
</g></g><g transform="translate(217,465) scale(0.31,0.31)"><g transform="" style="fill: rgb(226, 73, 73);">
<polygon points="0,50 50,100 100,50 50,0"/>
</g></g><g transform="translate(248,465) scale(0.31,0.31)"><g transform="" style="fill: rgb(226, 73, 73);">
<polygon points="0,50 50,100 100,50 50,0"/>
</g></g><g transform="translate(310,465) scale(0.31,0.31)"><g transform="" style="fill: rgb(226, 73, 73);">
<polygon points="0,50 50,100 100,50 50,0"/>
</g></g><g transform="translate(372,465) scale(0.31,0.31)"><g transform="" style="fill: rgb(226, 73, 73);">
<polygon points="0,50 50,100 100,50 50,0"/>
</g></g><g transform="translate(465,465) scale(0.31,0.31)"><g transform="" style="fill: rgb(226, 73, 73);">
<polygon points="0,50 50,100 100,50 50,0"/>
</g></g><g transform="translate(527,465) scale(0.31,0.31)"><g transform="" style="fill: rgb(226, 73, 73);">
<polygon points="0,50 50,100 100,50 50,0"/>
</g></g><g transform="translate(589,465) scale(0.31,0.31)"><g transform="" style="fill: rgb(226, 73, 73);">
<polygon points="0,50 50,100 100,50 50,0"/>
</g></g><g transform="translate(651,465) scale(0.31,0.31)"><g transform="" style="fill: rgb(226, 73, 73);">
<polygon points="0,50 50,100 100,50 50,0"/>
</g></g><g transform="translate(713,465) scale(0.31,0.31)"><g transform="" style="fill: rgb(226, 73, 73);">
<polygon points="0,50 50,100 100,50 50,0"/>
</g></g><g transform="translate(744,465) scale(0.31,0.31)"><g transform="" style="fill: rgb(226, 73, 73);">
<polygon points="0,50 50,100 100,50 50,0"/>
</g></g><g transform="translate(806,465) scale(0.31,0.31)"><g transform="" style="fill: rgb(226, 73, 73);">
<polygon points="0,50 50,100 100,50 50,0"/>
</g></g><g transform="translate(899,465) scale(0.31,0.31)"><g transform="" style="fill: rgb(226, 73, 73);">
<polygon points="0,50 50,100 100,50 50,0"/>
</g></g><g transform="translate(961,465) scale(0.31,0.31)"><g transform="" style="fill: rgb(226, 73, 73);">
<polygon points="0,50 50,100 100,50 50,0"/>
</g></g><g transform="translate(62,496) scale(0.31,0.31)"><g transform="" style="fill: rgb(226, 73, 73);">
<polygon points="0,50 50,100 100,50 50,0"/>
</g></g><g transform="translate(155,496) scale(0.31,0.31)"><g transform="" style="fill: rgb(226, 73, 73);">
<polygon points="0,50 50,100 100,50 50,0"/>
</g></g><g transform="translate(186,496) scale(0.31,0.31)"><g transform="" style="fill: rgb(226, 73, 73);">
<polygon points="0,50 50,100 100,50 50,0"/>
</g></g><g transform="translate(217,496) scale(0.31,0.31)"><g transform="" style="fill: rgb(226, 73, 73);">
<polygon points="0,50 50,100 100,50 50,0"/>
</g></g><g transform="translate(279,496) scale(0.31,0.31)"><g transform="" style="fill: rgb(226, 73, 73);">
<polygon points="0,50 50,100 100,50 50,0"/>
</g></g><g transform="translate(310,496) scale(0.31,0.31)"><g transform="" style="fill: rgb(226, 73, 73);">
<polygon points="0,50 50,100 100,50 50,0"/>
</g></g><g transform="translate(372,496) scale(0.31,0.31)"><g transform="" style="fill: rgb(226, 73, 73);">
<polygon points="0,50 50,100 100,50 50,0"/>
</g></g><g transform="translate(527,496) scale(0.31,0.31)"><g transform="" style="fill: rgb(226, 73, 73);">
<polygon points="0,50 50,100 100,50 50,0"/>
</g></g><g transform="translate(589,496) scale(0.31,0.31)"><g transform="" style="fill: rgb(226, 73, 73);">
<polygon points="0,50 50,100 100,50 50,0"/>
</g></g><g transform="translate(620,496) scale(0.31,0.31)"><g transform="" style="fill: rgb(226, 73, 73);">
<polygon points="0,50 50,100 100,50 50,0"/>
</g></g><g transform="translate(651,496) scale(0.31,0.31)"><g transform="" style="fill: rgb(226, 73, 73);">
<polygon points="0,50 50,100 100,50 50,0"/>
</g></g><g transform="translate(682,496) scale(0.31,0.31)"><g transform="" style="fill: rgb(226, 73, 73);">
<polygon points="0,50 50,100 100,50 50,0"/>
</g></g><g transform="translate(744,496) scale(0.31,0.31)"><g transform="" style="fill: rgb(226, 73, 73);">
<polygon points="0,50 50,100 100,50 50,0"/>
</g></g><g transform="translate(806,496) scale(0.31,0.31)"><g transform="" style="fill: rgb(226, 73, 73);">
<polygon points="0,50 50,100 100,50 50,0"/>
</g></g><g transform="translate(868,496) scale(0.31,0.31)"><g transform="" style="fill: rgb(226, 73, 73);">
<polygon points="0,50 50,100 100,50 50,0"/>
</g></g><g transform="translate(961,496) scale(0.31,0.31)"><g transform="" style="fill: rgb(226, 73, 73);">
<polygon points="0,50 50,100 100,50 50,0"/>
</g></g><g transform="translate(0,527) scale(0.31,0.31)"><g transform="" style="fill: rgb(226, 73, 73);">
<polygon points="0,50 50,100 100,50 50,0"/>
</g></g><g transform="translate(31,527) scale(0.31,0.31)"><g transform="" style="fill: rgb(226, 73, 73);">
<polygon points="0,50 50,100 100,50 50,0"/>
</g></g><g transform="translate(124,527) scale(0.31,0.31)"><g transform="" style="fill: rgb(226, 73, 73);">
<polygon points="0,50 50,100 100,50 50,0"/>
</g></g><g transform="translate(248,527) scale(0.31,0.31)"><g transform="" style="fill: rgb(226, 73, 73);">
<polygon points="0,50 50,100 100,50 50,0"/>
</g></g><g transform="translate(341,527) scale(0.31,0.31)"><g transform="" style="fill: rgb(226, 73, 73);">
<polygon points="0,50 50,100 100,50 50,0"/>
</g></g><g transform="translate(434,527) scale(0.31,0.31)"><g transform="" style="fill: rgb(226, 73, 73);">
<polygon points="0,50 50,100 100,50 50,0"/>
</g></g><g transform="translate(496,527) scale(0.31,0.31)"><g transform="" style="fill: rgb(226, 73, 73);">
<polygon points="0,50 50,100 100,50 50,0"/>
</g></g><g transform="translate(620,527) scale(0.31,0.31)"><g transform="" style="fill: rgb(226, 73, 73);">
<polygon points="0,50 50,100 100,50 50,0"/>
</g></g><g transform="translate(651,527) scale(0.31,0.31)"><g transform="" style="fill: rgb(226, 73, 73);">
<polygon points="0,50 50,100 100,50 50,0"/>
</g></g><g transform="translate(682,527) scale(0.31,0.31)"><g transform="" style="fill: rgb(226, 73, 73);">
<polygon points="0,50 50,100 100,50 50,0"/>
</g></g><g transform="translate(713,527) scale(0.31,0.31)"><g transform="" style="fill: rgb(226, 73, 73);">
<polygon points="0,50 50,100 100,50 50,0"/>
</g></g><g transform="translate(744,527) scale(0.31,0.31)"><g transform="" style="fill: rgb(226, 73, 73);">
<polygon points="0,50 50,100 100,50 50,0"/>
</g></g><g transform="translate(775,527) scale(0.31,0.31)"><g transform="" style="fill: rgb(226, 73, 73);">
<polygon points="0,50 50,100 100,50 50,0"/>
</g></g><g transform="translate(837,527) scale(0.31,0.31)"><g transform="" style="fill: rgb(226, 73, 73);">
<polygon points="0,50 50,100 100,50 50,0"/>
</g></g><g transform="translate(899,527) scale(0.31,0.31)"><g transform="" style="fill: rgb(226, 73, 73);">
<polygon points="0,50 50,100 100,50 50,0"/>
</g></g><g transform="translate(0,558) scale(0.31,0.31)"><g transform="" style="fill: rgb(226, 73, 73);">
<polygon points="0,50 50,100 100,50 50,0"/>
</g></g><g transform="translate(62,558) scale(0.31,0.31)"><g transform="" style="fill: rgb(226, 73, 73);">
<polygon points="0,50 50,100 100,50 50,0"/>
</g></g><g transform="translate(155,558) scale(0.31,0.31)"><g transform="" style="fill: rgb(226, 73, 73);">
<polygon points="0,50 50,100 100,50 50,0"/>
</g></g><g transform="translate(186,558) scale(0.31,0.31)"><g transform="" style="fill: rgb(226, 73, 73);">
<polygon points="0,50 50,100 100,50 50,0"/>
</g></g><g transform="translate(248,558) scale(0.31,0.31)"><g transform="" style="fill: rgb(226, 73, 73);">
<polygon points="0,50 50,100 100,50 50,0"/>
</g></g><g transform="translate(279,558) scale(0.31,0.31)"><g transform="" style="fill: rgb(226, 73, 73);">
<polygon points="0,50 50,100 100,50 50,0"/>
</g></g><g transform="translate(310,558) scale(0.31,0.31)"><g transform="" style="fill: rgb(226, 73, 73);">
<polygon points="0,50 50,100 100,50 50,0"/>
</g></g><g transform="translate(403,558) scale(0.31,0.31)"><g transform="" style="fill: rgb(226, 73, 73);">
<polygon points="0,50 50,100 100,50 50,0"/>
</g></g><g transform="translate(496,558) scale(0.31,0.31)"><g transform="" style="fill: rgb(226, 73, 73);">
<polygon points="0,50 50,100 100,50 50,0"/>
</g></g><g transform="translate(558,558) scale(0.31,0.31)"><g transform="" style="fill: rgb(226, 73, 73);">
<polygon points="0,50 50,100 100,50 50,0"/>
</g></g><g transform="translate(620,558) scale(0.31,0.31)"><g transform="" style="fill: rgb(226, 73, 73);">
<polygon points="0,50 50,100 100,50 50,0"/>
</g></g><g transform="translate(682,558) scale(0.31,0.31)"><g transform="" style="fill: rgb(226, 73, 73);">
<polygon points="0,50 50,100 100,50 50,0"/>
</g></g><g transform="translate(775,558) scale(0.31,0.31)"><g transform="" style="fill: rgb(226, 73, 73);">
<polygon points="0,50 50,100 100,50 50,0"/>
</g></g><g transform="translate(930,558) scale(0.31,0.31)"><g transform="" style="fill: rgb(226, 73, 73);">
<polygon points="0,50 50,100 100,50 50,0"/>
</g></g><g transform="translate(961,558) scale(0.31,0.31)"><g transform="" style="fill: rgb(226, 73, 73);">
<polygon points="0,50 50,100 100,50 50,0"/>
</g></g><g transform="translate(992,558) scale(0.31,0.31)"><g transform="" style="fill: rgb(226, 73, 73);">
<polygon points="0,50 50,100 100,50 50,0"/>
</g></g><g transform="translate(0,589) scale(0.31,0.31)"><g transform="" style="fill: rgb(226, 73, 73);">
<polygon points="0,50 50,100 100,50 50,0"/>
</g></g><g transform="translate(31,589) scale(0.31,0.31)"><g transform="" style="fill: rgb(226, 73, 73);">
<polygon points="0,50 50,100 100,50 50,0"/>
</g></g><g transform="translate(93,589) scale(0.31,0.31)"><g transform="" style="fill: rgb(226, 73, 73);">
<polygon points="0,50 50,100 100,50 50,0"/>
</g></g><g transform="translate(155,589) scale(0.31,0.31)"><g transform="" style="fill: rgb(226, 73, 73);">
<polygon points="0,50 50,100 100,50 50,0"/>
</g></g><g transform="translate(279,589) scale(0.31,0.31)"><g transform="" style="fill: rgb(226, 73, 73);">
<polygon points="0,50 50,100 100,50 50,0"/>
</g></g><g transform="translate(372,589) scale(0.31,0.31)"><g transform="" style="fill: rgb(226, 73, 73);">
<polygon points="0,50 50,100 100,50 50,0"/>
</g></g><g transform="translate(403,589) scale(0.31,0.31)"><g transform="" style="fill: rgb(226, 73, 73);">
<polygon points="0,50 50,100 100,50 50,0"/>
</g></g><g transform="translate(434,589) scale(0.31,0.31)"><g transform="" style="fill: rgb(226, 73, 73);">
<polygon points="0,50 50,100 100,50 50,0"/>
</g></g><g transform="translate(527,589) scale(0.31,0.31)"><g transform="" style="fill: rgb(226, 73, 73);">
<polygon points="0,50 50,100 100,50 50,0"/>
</g></g><g transform="translate(558,589) scale(0.31,0.31)"><g transform="" style="fill: rgb(226, 73, 73);">
<polygon points="0,50 50,100 100,50 50,0"/>
</g></g><g transform="translate(589,589) scale(0.31,0.31)"><g transform="" style="fill: rgb(226, 73, 73);">
<polygon points="0,50 50,100 100,50 50,0"/>
</g></g><g transform="translate(651,589) scale(0.31,0.31)"><g transform="" style="fill: rgb(226, 73, 73);">
<polygon points="0,50 50,100 100,50 50,0"/>
</g></g><g transform="translate(806,589) scale(0.31,0.31)"><g transform="" style="fill: rgb(226, 73, 73);">
<polygon points="0,50 50,100 100,50 50,0"/>
</g></g><g transform="translate(837,589) scale(0.31,0.31)"><g transform="" style="fill: rgb(226, 73, 73);">
<polygon points="0,50 50,100 100,50 50,0"/>
</g></g><g transform="translate(961,589) scale(0.31,0.31)"><g transform="" style="fill: rgb(226, 73, 73);">
<polygon points="0,50 50,100 100,50 50,0"/>
</g></g><g transform="translate(0,620) scale(0.31,0.31)"><g transform="" style="fill: rgb(226, 73, 73);">
<polygon points="0,50 50,100 100,50 50,0"/>
</g></g><g transform="translate(31,620) scale(0.31,0.31)"><g transform="" style="fill: rgb(226, 73, 73);">
<polygon points="0,50 50,100 100,50 50,0"/>
</g></g><g transform="translate(124,620) scale(0.31,0.31)"><g transform="" style="fill: rgb(226, 73, 73);">
<polygon points="0,50 50,100 100,50 50,0"/>
</g></g><g transform="translate(155,620) scale(0.31,0.31)"><g transform="" style="fill: rgb(226, 73, 73);">
<polygon points="0,50 50,100 100,50 50,0"/>
</g></g><g transform="translate(186,620) scale(0.31,0.31)"><g transform="" style="fill: rgb(226, 73, 73);">
<polygon points="0,50 50,100 100,50 50,0"/>
</g></g><g transform="translate(310,620) scale(0.31,0.31)"><g transform="" style="fill: rgb(226, 73, 73);">
<polygon points="0,50 50,100 100,50 50,0"/>
</g></g><g transform="translate(341,620) scale(0.31,0.31)"><g transform="" style="fill: rgb(226, 73, 73);">
<polygon points="0,50 50,100 100,50 50,0"/>
</g></g><g transform="translate(372,620) scale(0.31,0.31)"><g transform="" style="fill: rgb(226, 73, 73);">
<polygon points="0,50 50,100 100,50 50,0"/>
</g></g><g transform="translate(403,620) scale(0.31,0.31)"><g transform="" style="fill: rgb(226, 73, 73);">
<polygon points="0,50 50,100 100,50 50,0"/>
</g></g><g transform="translate(434,620) scale(0.31,0.31)"><g transform="" style="fill: rgb(226, 73, 73);">
<polygon points="0,50 50,100 100,50 50,0"/>
</g></g><g transform="translate(465,620) scale(0.31,0.31)"><g transform="" style="fill: rgb(226, 73, 73);">
<polygon points="0,50 50,100 100,50 50,0"/>
</g></g><g transform="translate(496,620) scale(0.31,0.31)"><g transform="" style="fill: rgb(226, 73, 73);">
<polygon points="0,50 50,100 100,50 50,0"/>
</g></g><g transform="translate(527,620) scale(0.31,0.31)"><g transform="" style="fill: rgb(226, 73, 73);">
<polygon points="0,50 50,100 100,50 50,0"/>
</g></g><g transform="translate(558,620) scale(0.31,0.31)"><g transform="" style="fill: rgb(226, 73, 73);">
<polygon points="0,50 50,100 100,50 50,0"/>
</g></g><g transform="translate(682,620) scale(0.31,0.31)"><g transform="" style="fill: rgb(226, 73, 73);">
<polygon points="0,50 50,100 100,50 50,0"/>
</g></g><g transform="translate(961,620) scale(0.31,0.31)"><g transform="" style="fill: rgb(226, 73, 73);">
<polygon points="0,50 50,100 100,50 50,0"/>
</g></g><g transform="translate(31,651) scale(0.31,0.31)"><g transform="" style="fill: rgb(226, 73, 73);">
<polygon points="0,50 50,100 100,50 50,0"/>
</g></g><g transform="translate(93,651) scale(0.31,0.31)"><g transform="" style="fill: rgb(226, 73, 73);">
<polygon points="0,50 50,100 100,50 50,0"/>
</g></g><g transform="translate(248,651) scale(0.31,0.31)"><g transform="" style="fill: rgb(226, 73, 73);">
<polygon points="0,50 50,100 100,50 50,0"/>
</g></g><g transform="translate(310,651) scale(0.31,0.31)"><g transform="" style="fill: rgb(226, 73, 73);">
<polygon points="0,50 50,100 100,50 50,0"/>
</g></g><g transform="translate(403,651) scale(0.31,0.31)"><g transform="" style="fill: rgb(226, 73, 73);">
<polygon points="0,50 50,100 100,50 50,0"/>
</g></g><g transform="translate(434,651) scale(0.31,0.31)"><g transform="" style="fill: rgb(226, 73, 73);">
<polygon points="0,50 50,100 100,50 50,0"/>
</g></g><g transform="translate(465,651) scale(0.31,0.31)"><g transform="" style="fill: rgb(226, 73, 73);">
<polygon points="0,50 50,100 100,50 50,0"/>
</g></g><g transform="translate(496,651) scale(0.31,0.31)"><g transform="" style="fill: rgb(226, 73, 73);">
<polygon points="0,50 50,100 100,50 50,0"/>
</g></g><g transform="translate(558,651) scale(0.31,0.31)"><g transform="" style="fill: rgb(226, 73, 73);">
<polygon points="0,50 50,100 100,50 50,0"/>
</g></g><g transform="translate(589,651) scale(0.31,0.31)"><g transform="" style="fill: rgb(226, 73, 73);">
<polygon points="0,50 50,100 100,50 50,0"/>
</g></g><g transform="translate(620,651) scale(0.31,0.31)"><g transform="" style="fill: rgb(226, 73, 73);">
<polygon points="0,50 50,100 100,50 50,0"/>
</g></g><g transform="translate(651,651) scale(0.31,0.31)"><g transform="" style="fill: rgb(226, 73, 73);">
<polygon points="0,50 50,100 100,50 50,0"/>
</g></g><g transform="translate(682,651) scale(0.31,0.31)"><g transform="" style="fill: rgb(226, 73, 73);">
<polygon points="0,50 50,100 100,50 50,0"/>
</g></g><g transform="translate(744,651) scale(0.31,0.31)"><g transform="" style="fill: rgb(226, 73, 73);">
<polygon points="0,50 50,100 100,50 50,0"/>
</g></g><g transform="translate(775,651) scale(0.31,0.31)"><g transform="" style="fill: rgb(226, 73, 73);">
<polygon points="0,50 50,100 100,50 50,0"/>
</g></g><g transform="translate(806,651) scale(0.31,0.31)"><g transform="" style="fill: rgb(226, 73, 73);">
<polygon points="0,50 50,100 100,50 50,0"/>
</g></g><g transform="translate(930,651) scale(0.31,0.31)"><g transform="" style="fill: rgb(226, 73, 73);">
<polygon points="0,50 50,100 100,50 50,0"/>
</g></g><g transform="translate(961,651) scale(0.31,0.31)"><g transform="" style="fill: rgb(226, 73, 73);">
<polygon points="0,50 50,100 100,50 50,0"/>
</g></g><g transform="translate(992,651) scale(0.31,0.31)"><g transform="" style="fill: rgb(226, 73, 73);">
<polygon points="0,50 50,100 100,50 50,0"/>
</g></g><g transform="translate(0,682) scale(0.31,0.31)"><g transform="" style="fill: rgb(226, 73, 73);">
<polygon points="0,50 50,100 100,50 50,0"/>
</g></g><g transform="translate(31,682) scale(0.31,0.31)"><g transform="" style="fill: rgb(226, 73, 73);">
<polygon points="0,50 50,100 100,50 50,0"/>
</g></g><g transform="translate(62,682) scale(0.31,0.31)"><g transform="" style="fill: rgb(226, 73, 73);">
<polygon points="0,50 50,100 100,50 50,0"/>
</g></g><g transform="translate(155,682) scale(0.31,0.31)"><g transform="" style="fill: rgb(226, 73, 73);">
<polygon points="0,50 50,100 100,50 50,0"/>
</g></g><g transform="translate(186,682) scale(0.31,0.31)"><g transform="" style="fill: rgb(226, 73, 73);">
<polygon points="0,50 50,100 100,50 50,0"/>
</g></g><g transform="translate(217,682) scale(0.31,0.31)"><g transform="" style="fill: rgb(226, 73, 73);">
<polygon points="0,50 50,100 100,50 50,0"/>
</g></g><g transform="translate(248,682) scale(0.31,0.31)"><g transform="" style="fill: rgb(226, 73, 73);">
<polygon points="0,50 50,100 100,50 50,0"/>
</g></g><g transform="translate(310,682) scale(0.31,0.31)"><g transform="" style="fill: rgb(226, 73, 73);">
<polygon points="0,50 50,100 100,50 50,0"/>
</g></g><g transform="translate(372,682) scale(0.31,0.31)"><g transform="" style="fill: rgb(226, 73, 73);">
<polygon points="0,50 50,100 100,50 50,0"/>
</g></g><g transform="translate(403,682) scale(0.31,0.31)"><g transform="" style="fill: rgb(226, 73, 73);">
<polygon points="0,50 50,100 100,50 50,0"/>
</g></g><g transform="translate(465,682) scale(0.31,0.31)"><g transform="" style="fill: rgb(226, 73, 73);">
<polygon points="0,50 50,100 100,50 50,0"/>
</g></g><g transform="translate(558,682) scale(0.31,0.31)"><g transform="" style="fill: rgb(226, 73, 73);">
<polygon points="0,50 50,100 100,50 50,0"/>
</g></g><g transform="translate(620,682) scale(0.31,0.31)"><g transform="" style="fill: rgb(226, 73, 73);">
<polygon points="0,50 50,100 100,50 50,0"/>
</g></g><g transform="translate(651,682) scale(0.31,0.31)"><g transform="" style="fill: rgb(226, 73, 73);">
<polygon points="0,50 50,100 100,50 50,0"/>
</g></g><g transform="translate(744,682) scale(0.31,0.31)"><g transform="" style="fill: rgb(226, 73, 73);">
<polygon points="0,50 50,100 100,50 50,0"/>
</g></g><g transform="translate(837,682) scale(0.31,0.31)"><g transform="" style="fill: rgb(226, 73, 73);">
<polygon points="0,50 50,100 100,50 50,0"/>
</g></g><g transform="translate(868,682) scale(0.31,0.31)"><g transform="" style="fill: rgb(226, 73, 73);">
<polygon points="0,50 50,100 100,50 50,0"/>
</g></g><g transform="translate(899,682) scale(0.31,0.31)"><g transform="" style="fill: rgb(226, 73, 73);">
<polygon points="0,50 50,100 100,50 50,0"/>
</g></g><g transform="translate(992,682) scale(0.31,0.31)"><g transform="" style="fill: rgb(226, 73, 73);">
<polygon points="0,50 50,100 100,50 50,0"/>
</g></g><g transform="translate(31,713) scale(0.31,0.31)"><g transform="" style="fill: rgb(226, 73, 73);">
<polygon points="0,50 50,100 100,50 50,0"/>
</g></g><g transform="translate(62,713) scale(0.31,0.31)"><g transform="" style="fill: rgb(226, 73, 73);">
<polygon points="0,50 50,100 100,50 50,0"/>
</g></g><g transform="translate(93,713) scale(0.31,0.31)"><g transform="" style="fill: rgb(226, 73, 73);">
<polygon points="0,50 50,100 100,50 50,0"/>
</g></g><g transform="translate(217,713) scale(0.31,0.31)"><g transform="" style="fill: rgb(226, 73, 73);">
<polygon points="0,50 50,100 100,50 50,0"/>
</g></g><g transform="translate(248,713) scale(0.31,0.31)"><g transform="" style="fill: rgb(226, 73, 73);">
<polygon points="0,50 50,100 100,50 50,0"/>
</g></g><g transform="translate(279,713) scale(0.31,0.31)"><g transform="" style="fill: rgb(226, 73, 73);">
<polygon points="0,50 50,100 100,50 50,0"/>
</g></g><g transform="translate(310,713) scale(0.31,0.31)"><g transform="" style="fill: rgb(226, 73, 73);">
<polygon points="0,50 50,100 100,50 50,0"/>
</g></g><g transform="translate(341,713) scale(0.31,0.31)"><g transform="" style="fill: rgb(226, 73, 73);">
<polygon points="0,50 50,100 100,50 50,0"/>
</g></g><g transform="translate(403,713) scale(0.31,0.31)"><g transform="" style="fill: rgb(226, 73, 73);">
<polygon points="0,50 50,100 100,50 50,0"/>
</g></g><g transform="translate(434,713) scale(0.31,0.31)"><g transform="" style="fill: rgb(226, 73, 73);">
<polygon points="0,50 50,100 100,50 50,0"/>
</g></g><g transform="translate(496,713) scale(0.31,0.31)"><g transform="" style="fill: rgb(226, 73, 73);">
<polygon points="0,50 50,100 100,50 50,0"/>
</g></g><g transform="translate(651,713) scale(0.31,0.31)"><g transform="" style="fill: rgb(226, 73, 73);">
<polygon points="0,50 50,100 100,50 50,0"/>
</g></g><g transform="translate(682,713) scale(0.31,0.31)"><g transform="" style="fill: rgb(226, 73, 73);">
<polygon points="0,50 50,100 100,50 50,0"/>
</g></g><g transform="translate(775,713) scale(0.31,0.31)"><g transform="" style="fill: rgb(226, 73, 73);">
<polygon points="0,50 50,100 100,50 50,0"/>
</g></g><g transform="translate(868,713) scale(0.31,0.31)"><g transform="" style="fill: rgb(226, 73, 73);">
<polygon points="0,50 50,100 100,50 50,0"/>
</g></g><g transform="translate(899,713) scale(0.31,0.31)"><g transform="" style="fill: rgb(226, 73, 73);">
<polygon points="0,50 50,100 100,50 50,0"/>
</g></g><g transform="translate(992,713) scale(0.31,0.31)"><g transform="" style="fill: rgb(226, 73, 73);">
<polygon points="0,50 50,100 100,50 50,0"/>
</g></g><g transform="translate(0,744) scale(0.31,0.31)"><g transform="" style="fill: rgb(226, 73, 73);">
<polygon points="0,50 50,100 100,50 50,0"/>
</g></g><g transform="translate(62,744) scale(0.31,0.31)"><g transform="" style="fill: rgb(226, 73, 73);">
<polygon points="0,50 50,100 100,50 50,0"/>
</g></g><g transform="translate(93,744) scale(0.31,0.31)"><g transform="" style="fill: rgb(226, 73, 73);">
<polygon points="0,50 50,100 100,50 50,0"/>
</g></g><g transform="translate(124,744) scale(0.31,0.31)"><g transform="" style="fill: rgb(226, 73, 73);">
<polygon points="0,50 50,100 100,50 50,0"/>
</g></g><g transform="translate(155,744) scale(0.31,0.31)"><g transform="" style="fill: rgb(226, 73, 73);">
<polygon points="0,50 50,100 100,50 50,0"/>
</g></g><g transform="translate(186,744) scale(0.31,0.31)"><g transform="" style="fill: rgb(226, 73, 73);">
<polygon points="0,50 50,100 100,50 50,0"/>
</g></g><g transform="translate(217,744) scale(0.31,0.31)"><g transform="" style="fill: rgb(226, 73, 73);">
<polygon points="0,50 50,100 100,50 50,0"/>
</g></g><g transform="translate(310,744) scale(0.31,0.31)"><g transform="" style="fill: rgb(226, 73, 73);">
<polygon points="0,50 50,100 100,50 50,0"/>
</g></g><g transform="translate(434,744) scale(0.31,0.31)"><g transform="" style="fill: rgb(226, 73, 73);">
<polygon points="0,50 50,100 100,50 50,0"/>
</g></g><g transform="translate(465,744) scale(0.31,0.31)"><g transform="" style="fill: rgb(226, 73, 73);">
<polygon points="0,50 50,100 100,50 50,0"/>
</g></g><g transform="translate(496,744) scale(0.31,0.31)"><g transform="" style="fill: rgb(226, 73, 73);">
<polygon points="0,50 50,100 100,50 50,0"/>
</g></g><g transform="translate(527,744) scale(0.31,0.31)"><g transform="" style="fill: rgb(226, 73, 73);">
<polygon points="0,50 50,100 100,50 50,0"/>
</g></g><g transform="translate(589,744) scale(0.31,0.31)"><g transform="" style="fill: rgb(226, 73, 73);">
<polygon points="0,50 50,100 100,50 50,0"/>
</g></g><g transform="translate(651,744) scale(0.31,0.31)"><g transform="" style="fill: rgb(226, 73, 73);">
<polygon points="0,50 50,100 100,50 50,0"/>
</g></g><g transform="translate(713,744) scale(0.31,0.31)"><g transform="" style="fill: rgb(226, 73, 73);">
<polygon points="0,50 50,100 100,50 50,0"/>
</g></g><g transform="translate(744,744) scale(0.31,0.31)"><g transform="" style="fill: rgb(226, 73, 73);">
<polygon points="0,50 50,100 100,50 50,0"/>
</g></g><g transform="translate(775,744) scale(0.31,0.31)"><g transform="" style="fill: rgb(226, 73, 73);">
<polygon points="0,50 50,100 100,50 50,0"/>
</g></g><g transform="translate(806,744) scale(0.31,0.31)"><g transform="" style="fill: rgb(226, 73, 73);">
<polygon points="0,50 50,100 100,50 50,0"/>
</g></g><g transform="translate(837,744) scale(0.31,0.31)"><g transform="" style="fill: rgb(226, 73, 73);">
<polygon points="0,50 50,100 100,50 50,0"/>
</g></g><g transform="translate(868,744) scale(0.31,0.31)"><g transform="" style="fill: rgb(226, 73, 73);">
<polygon points="0,50 50,100 100,50 50,0"/>
</g></g><g transform="translate(961,744) scale(0.31,0.31)"><g transform="" style="fill: rgb(226, 73, 73);">
<polygon points="0,50 50,100 100,50 50,0"/>
</g></g><g transform="translate(248,775) scale(0.31,0.31)"><g transform="" style="fill: rgb(226, 73, 73);">
<polygon points="0,50 50,100 100,50 50,0"/>
</g></g><g transform="translate(279,775) scale(0.31,0.31)"><g transform="" style="fill: rgb(226, 73, 73);">
<polygon points="0,50 50,100 100,50 50,0"/>
</g></g><g transform="translate(310,775) scale(0.31,0.31)"><g transform="" style="fill: rgb(226, 73, 73);">
<polygon points="0,50 50,100 100,50 50,0"/>
</g></g><g transform="translate(341,775) scale(0.31,0.31)"><g transform="" style="fill: rgb(226, 73, 73);">
<polygon points="0,50 50,100 100,50 50,0"/>
</g></g><g transform="translate(496,775) scale(0.31,0.31)"><g transform="" style="fill: rgb(226, 73, 73);">
<polygon points="0,50 50,100 100,50 50,0"/>
</g></g><g transform="translate(558,775) scale(0.31,0.31)"><g transform="" style="fill: rgb(226, 73, 73);">
<polygon points="0,50 50,100 100,50 50,0"/>
</g></g><g transform="translate(589,775) scale(0.31,0.31)"><g transform="" style="fill: rgb(226, 73, 73);">
<polygon points="0,50 50,100 100,50 50,0"/>
</g></g><g transform="translate(620,775) scale(0.31,0.31)"><g transform="" style="fill: rgb(226, 73, 73);">
<polygon points="0,50 50,100 100,50 50,0"/>
</g></g><g transform="translate(713,775) scale(0.31,0.31)"><g transform="" style="fill: rgb(226, 73, 73);">
<polygon points="0,50 50,100 100,50 50,0"/>
</g></g><g transform="translate(744,775) scale(0.31,0.31)"><g transform="" style="fill: rgb(226, 73, 73);">
<polygon points="0,50 50,100 100,50 50,0"/>
</g></g><g transform="translate(868,775) scale(0.31,0.31)"><g transform="" style="fill: rgb(226, 73, 73);">
<polygon points="0,50 50,100 100,50 50,0"/>
</g></g><g transform="translate(899,775) scale(0.31,0.31)"><g transform="" style="fill: rgb(226, 73, 73);">
<polygon points="0,50 50,100 100,50 50,0"/>
</g></g><g transform="translate(992,775) scale(0.31,0.31)"><g transform="" style="fill: rgb(226, 73, 73);">
<polygon points="0,50 50,100 100,50 50,0"/>
</g></g><g transform="translate(279,806) scale(0.31,0.31)"><g transform="" style="fill: rgb(226, 73, 73);">
<polygon points="0,50 50,100 100,50 50,0"/>
</g></g><g transform="translate(341,806) scale(0.31,0.31)"><g transform="" style="fill: rgb(226, 73, 73);">
<polygon points="0,50 50,100 100,50 50,0"/>
</g></g><g transform="translate(434,806) scale(0.31,0.31)"><g transform="" style="fill: rgb(226, 73, 73);">
<polygon points="0,50 50,100 100,50 50,0"/>
</g></g><g transform="translate(496,806) scale(0.31,0.31)"><g transform="" style="fill: rgb(226, 73, 73);">
<polygon points="0,50 50,100 100,50 50,0"/>
</g></g><g transform="translate(620,806) scale(0.31,0.31)"><g transform="" style="fill: rgb(226, 73, 73);">
<polygon points="0,50 50,100 100,50 50,0"/>
</g></g><g transform="translate(651,806) scale(0.31,0.31)"><g transform="" style="fill: rgb(226, 73, 73);">
<polygon points="0,50 50,100 100,50 50,0"/>
</g></g><g transform="translate(744,806) scale(0.31,0.31)"><g transform="" style="fill: rgb(226, 73, 73);">
<polygon points="0,50 50,100 100,50 50,0"/>
</g></g><g transform="translate(806,806) scale(0.31,0.31)"><g transform="" style="fill: rgb(226, 73, 73);">
<polygon points="0,50 50,100 100,50 50,0"/>
</g></g><g transform="translate(868,806) scale(0.31,0.31)"><g transform="" style="fill: rgb(226, 73, 73);">
<polygon points="0,50 50,100 100,50 50,0"/>
</g></g><g transform="translate(899,806) scale(0.31,0.31)"><g transform="" style="fill: rgb(226, 73, 73);">
<polygon points="0,50 50,100 100,50 50,0"/>
</g></g><g transform="translate(930,806) scale(0.31,0.31)"><g transform="" style="fill: rgb(226, 73, 73);">
<polygon points="0,50 50,100 100,50 50,0"/>
</g></g><g transform="translate(961,806) scale(0.31,0.31)"><g transform="" style="fill: rgb(226, 73, 73);">
<polygon points="0,50 50,100 100,50 50,0"/>
</g></g><g transform="translate(248,837) scale(0.31,0.31)"><g transform="" style="fill: rgb(226, 73, 73);">
<polygon points="0,50 50,100 100,50 50,0"/>
</g></g><g transform="translate(279,837) scale(0.31,0.31)"><g transform="" style="fill: rgb(226, 73, 73);">
<polygon points="0,50 50,100 100,50 50,0"/>
</g></g><g transform="translate(341,837) scale(0.31,0.31)"><g transform="" style="fill: rgb(226, 73, 73);">
<polygon points="0,50 50,100 100,50 50,0"/>
</g></g><g transform="translate(372,837) scale(0.31,0.31)"><g transform="" style="fill: rgb(226, 73, 73);">
<polygon points="0,50 50,100 100,50 50,0"/>
</g></g><g transform="translate(589,837) scale(0.31,0.31)"><g transform="" style="fill: rgb(226, 73, 73);">
<polygon points="0,50 50,100 100,50 50,0"/>
</g></g><g transform="translate(620,837) scale(0.31,0.31)"><g transform="" style="fill: rgb(226, 73, 73);">
<polygon points="0,50 50,100 100,50 50,0"/>
</g></g><g transform="translate(744,837) scale(0.31,0.31)"><g transform="" style="fill: rgb(226, 73, 73);">
<polygon points="0,50 50,100 100,50 50,0"/>
</g></g><g transform="translate(868,837) scale(0.31,0.31)"><g transform="" style="fill: rgb(226, 73, 73);">
<polygon points="0,50 50,100 100,50 50,0"/>
</g></g><g transform="translate(961,837) scale(0.31,0.31)"><g transform="" style="fill: rgb(226, 73, 73);">
<polygon points="0,50 50,100 100,50 50,0"/>
</g></g><g transform="translate(341,868) scale(0.31,0.31)"><g transform="" style="fill: rgb(226, 73, 73);">
<polygon points="0,50 50,100 100,50 50,0"/>
</g></g><g transform="translate(403,868) scale(0.31,0.31)"><g transform="" style="fill: rgb(226, 73, 73);">
<polygon points="0,50 50,100 100,50 50,0"/>
</g></g><g transform="translate(496,868) scale(0.31,0.31)"><g transform="" style="fill: rgb(226, 73, 73);">
<polygon points="0,50 50,100 100,50 50,0"/>
</g></g><g transform="translate(589,868) scale(0.31,0.31)"><g transform="" style="fill: rgb(226, 73, 73);">
<polygon points="0,50 50,100 100,50 50,0"/>
</g></g><g transform="translate(682,868) scale(0.31,0.31)"><g transform="" style="fill: rgb(226, 73, 73);">
<polygon points="0,50 50,100 100,50 50,0"/>
</g></g><g transform="translate(744,868) scale(0.31,0.31)"><g transform="" style="fill: rgb(226, 73, 73);">
<polygon points="0,50 50,100 100,50 50,0"/>
</g></g><g transform="translate(775,868) scale(0.31,0.31)"><g transform="" style="fill: rgb(226, 73, 73);">
<polygon points="0,50 50,100 100,50 50,0"/>
</g></g><g transform="translate(806,868) scale(0.31,0.31)"><g transform="" style="fill: rgb(226, 73, 73);">
<polygon points="0,50 50,100 100,50 50,0"/>
</g></g><g transform="translate(837,868) scale(0.31,0.31)"><g transform="" style="fill: rgb(226, 73, 73);">
<polygon points="0,50 50,100 100,50 50,0"/>
</g></g><g transform="translate(868,868) scale(0.31,0.31)"><g transform="" style="fill: rgb(226, 73, 73);">
<polygon points="0,50 50,100 100,50 50,0"/>
</g></g><g transform="translate(899,868) scale(0.31,0.31)"><g transform="" style="fill: rgb(226, 73, 73);">
<polygon points="0,50 50,100 100,50 50,0"/>
</g></g><g transform="translate(992,868) scale(0.31,0.31)"><g transform="" style="fill: rgb(226, 73, 73);">
<polygon points="0,50 50,100 100,50 50,0"/>
</g></g><g transform="translate(248,899) scale(0.31,0.31)"><g transform="" style="fill: rgb(226, 73, 73);">
<polygon points="0,50 50,100 100,50 50,0"/>
</g></g><g transform="translate(310,899) scale(0.31,0.31)"><g transform="" style="fill: rgb(226, 73, 73);">
<polygon points="0,50 50,100 100,50 50,0"/>
</g></g><g transform="translate(341,899) scale(0.31,0.31)"><g transform="" style="fill: rgb(226, 73, 73);">
<polygon points="0,50 50,100 100,50 50,0"/>
</g></g><g transform="translate(434,899) scale(0.31,0.31)"><g transform="" style="fill: rgb(226, 73, 73);">
<polygon points="0,50 50,100 100,50 50,0"/>
</g></g><g transform="translate(465,899) scale(0.31,0.31)"><g transform="" style="fill: rgb(226, 73, 73);">
<polygon points="0,50 50,100 100,50 50,0"/>
</g></g><g transform="translate(589,899) scale(0.31,0.31)"><g transform="" style="fill: rgb(226, 73, 73);">
<polygon points="0,50 50,100 100,50 50,0"/>
</g></g><g transform="translate(620,899) scale(0.31,0.31)"><g transform="" style="fill: rgb(226, 73, 73);">
<polygon points="0,50 50,100 100,50 50,0"/>
</g></g><g transform="translate(651,899) scale(0.31,0.31)"><g transform="" style="fill: rgb(226, 73, 73);">
<polygon points="0,50 50,100 100,50 50,0"/>
</g></g><g transform="translate(713,899) scale(0.31,0.31)"><g transform="" style="fill: rgb(226, 73, 73);">
<polygon points="0,50 50,100 100,50 50,0"/>
</g></g><g transform="translate(806,899) scale(0.31,0.31)"><g transform="" style="fill: rgb(226, 73, 73);">
<polygon points="0,50 50,100 100,50 50,0"/>
</g></g><g transform="translate(868,899) scale(0.31,0.31)"><g transform="" style="fill: rgb(226, 73, 73);">
<polygon points="0,50 50,100 100,50 50,0"/>
</g></g><g transform="translate(899,899) scale(0.31,0.31)"><g transform="" style="fill: rgb(226, 73, 73);">
<polygon points="0,50 50,100 100,50 50,0"/>
</g></g><g transform="translate(930,899) scale(0.31,0.31)"><g transform="" style="fill: rgb(226, 73, 73);">
<polygon points="0,50 50,100 100,50 50,0"/>
</g></g><g transform="translate(961,899) scale(0.31,0.31)"><g transform="" style="fill: rgb(226, 73, 73);">
<polygon points="0,50 50,100 100,50 50,0"/>
</g></g><g transform="translate(310,930) scale(0.31,0.31)"><g transform="" style="fill: rgb(226, 73, 73);">
<polygon points="0,50 50,100 100,50 50,0"/>
</g></g><g transform="translate(341,930) scale(0.31,0.31)"><g transform="" style="fill: rgb(226, 73, 73);">
<polygon points="0,50 50,100 100,50 50,0"/>
</g></g><g transform="translate(713,930) scale(0.31,0.31)"><g transform="" style="fill: rgb(226, 73, 73);">
<polygon points="0,50 50,100 100,50 50,0"/>
</g></g><g transform="translate(744,930) scale(0.31,0.31)"><g transform="" style="fill: rgb(226, 73, 73);">
<polygon points="0,50 50,100 100,50 50,0"/>
</g></g><g transform="translate(868,930) scale(0.31,0.31)"><g transform="" style="fill: rgb(226, 73, 73);">
<polygon points="0,50 50,100 100,50 50,0"/>
</g></g><g transform="translate(930,930) scale(0.31,0.31)"><g transform="" style="fill: rgb(226, 73, 73);">
<polygon points="0,50 50,100 100,50 50,0"/>
</g></g><g transform="translate(992,930) scale(0.31,0.31)"><g transform="" style="fill: rgb(226, 73, 73);">
<polygon points="0,50 50,100 100,50 50,0"/>
</g></g><g transform="translate(279,961) scale(0.31,0.31)"><g transform="" style="fill: rgb(226, 73, 73);">
<polygon points="0,50 50,100 100,50 50,0"/>
</g></g><g transform="translate(372,961) scale(0.31,0.31)"><g transform="" style="fill: rgb(226, 73, 73);">
<polygon points="0,50 50,100 100,50 50,0"/>
</g></g><g transform="translate(403,961) scale(0.31,0.31)"><g transform="" style="fill: rgb(226, 73, 73);">
<polygon points="0,50 50,100 100,50 50,0"/>
</g></g><g transform="translate(434,961) scale(0.31,0.31)"><g transform="" style="fill: rgb(226, 73, 73);">
<polygon points="0,50 50,100 100,50 50,0"/>
</g></g><g transform="translate(465,961) scale(0.31,0.31)"><g transform="" style="fill: rgb(226, 73, 73);">
<polygon points="0,50 50,100 100,50 50,0"/>
</g></g><g transform="translate(496,961) scale(0.31,0.31)"><g transform="" style="fill: rgb(226, 73, 73);">
<polygon points="0,50 50,100 100,50 50,0"/>
</g></g><g transform="translate(527,961) scale(0.31,0.31)"><g transform="" style="fill: rgb(226, 73, 73);">
<polygon points="0,50 50,100 100,50 50,0"/>
</g></g><g transform="translate(558,961) scale(0.31,0.31)"><g transform="" style="fill: rgb(226, 73, 73);">
<polygon points="0,50 50,100 100,50 50,0"/>
</g></g><g transform="translate(651,961) scale(0.31,0.31)"><g transform="" style="fill: rgb(226, 73, 73);">
<polygon points="0,50 50,100 100,50 50,0"/>
</g></g><g transform="translate(682,961) scale(0.31,0.31)"><g transform="" style="fill: rgb(226, 73, 73);">
<polygon points="0,50 50,100 100,50 50,0"/>
</g></g><g transform="translate(713,961) scale(0.31,0.31)"><g transform="" style="fill: rgb(226, 73, 73);">
<polygon points="0,50 50,100 100,50 50,0"/>
</g></g><g transform="translate(744,961) scale(0.31,0.31)"><g transform="" style="fill: rgb(226, 73, 73);">
<polygon points="0,50 50,100 100,50 50,0"/>
</g></g><g transform="translate(775,961) scale(0.31,0.31)"><g transform="" style="fill: rgb(226, 73, 73);">
<polygon points="0,50 50,100 100,50 50,0"/>
</g></g><g transform="translate(806,961) scale(0.31,0.31)"><g transform="" style="fill: rgb(226, 73, 73);">
<polygon points="0,50 50,100 100,50 50,0"/>
</g></g><g transform="translate(248,992) scale(0.31,0.31)"><g transform="" style="fill: rgb(226, 73, 73);">
<polygon points="0,50 50,100 100,50 50,0"/>
</g></g><g transform="translate(279,992) scale(0.31,0.31)"><g transform="" style="fill: rgb(226, 73, 73);">
<polygon points="0,50 50,100 100,50 50,0"/>
</g></g><g transform="translate(341,992) scale(0.31,0.31)"><g transform="" style="fill: rgb(226, 73, 73);">
<polygon points="0,50 50,100 100,50 50,0"/>
</g></g><g transform="translate(372,992) scale(0.31,0.31)"><g transform="" style="fill: rgb(226, 73, 73);">
<polygon points="0,50 50,100 100,50 50,0"/>
</g></g><g transform="translate(496,992) scale(0.31,0.31)"><g transform="" style="fill: rgb(226, 73, 73);">
<polygon points="0,50 50,100 100,50 50,0"/>
</g></g><g transform="translate(651,992) scale(0.31,0.31)"><g transform="" style="fill: rgb(226, 73, 73);">
<polygon points="0,50 50,100 100,50 50,0"/>
</g></g><g transform="translate(744,992) scale(0.31,0.31)"><g transform="" style="fill: rgb(226, 73, 73);">
<polygon points="0,50 50,100 100,50 50,0"/>
</g></g><g transform="translate(806,992) scale(0.31,0.31)"><g transform="" style="fill: rgb(226, 73, 73);">
<polygon points="0,50 50,100 100,50 50,0"/>
</g></g><g transform="translate(868,992) scale(0.31,0.31)"><g transform="" style="fill: rgb(226, 73, 73);">
<polygon points="0,50 50,100 100,50 50,0"/>
</g></g><g transform="translate(899,992) scale(0.31,0.31)"><g transform="" style="fill: rgb(226, 73, 73);">
<polygon points="0,50 50,100 100,50 50,0"/>
</g></g><g transform="translate(961,992) scale(0.31,0.31)"><g transform="" style="fill: rgb(226, 73, 73);">
<polygon points="0,50 50,100 100,50 50,0"/>
</g></g><g transform="translate(0,0) scale(2.17, 2.17)"><g transform=" translate(0,100) scale(1,-1) " style="fill: rgb(226, 73, 73);">
<g>
	<path style="fill:none;" d="M33.78,85H85V15H15.004l0.016,50.855C15.02,76.414,23.436,85,33.78,85z"/>
	<path d="M100,100V65.859V34.141C100,25.65,100,0,100,0S76.46,0,66.25,0H0l0.02,65.859C0.02,84.68,15.16,100,33.78,100h32.47H100z
		 M85,85H33.78c-10.344,0-18.76-8.586-18.76-19.145L15.004,15H85V85z"/>
</g>
</g></g><g transform="translate(806,0) scale(2.17, 2.17)"><g transform=" translate(0,100) scale(1,-1)  translate(100, 0) scale(-1,1) " style="fill: rgb(226, 73, 73);">
<g>
	<path style="fill:none;" d="M33.78,85H85V15H15.004l0.016,50.855C15.02,76.414,23.436,85,33.78,85z"/>
	<path d="M100,100V65.859V34.141C100,25.65,100,0,100,0S76.46,0,66.25,0H0l0.02,65.859C0.02,84.68,15.16,100,33.78,100h32.47H100z
		 M85,85H33.78c-10.344,0-18.76-8.586-18.76-19.145L15.004,15H85V85z"/>
</g>
</g></g><g transform="translate(0,806) scale(2.17, 2.17)"><g transform="" style="fill: rgb(226, 73, 73);">
<g>
	<path style="fill:none;" d="M33.78,85H85V15H15.004l0.016,50.855C15.02,76.414,23.436,85,33.78,85z"/>
	<path d="M100,100V65.859V34.141C100,25.65,100,0,100,0S76.46,0,66.25,0H0l0.02,65.859C0.02,84.68,15.16,100,33.78,100h32.47H100z
		 M85,85H33.78c-10.344,0-18.76-8.586-18.76-19.145L15.004,15H85V85z"/>
</g>
</g></g><g transform="translate(62,62) scale(0.93, 0.93)"><g transform=" translate(0,100) scale(1,-1) " style="fill: rgb(226, 73, 73);">
<g>
</g>
<path d="M72.744-0.021H27.23c-2.341,0-4.612,0.297-6.771,0.875C15.679,2.11,11.418,4.648,8.04,8.09
	c-0.617,0.621-1.206,1.284-1.752,1.96c-3.883,4.767-6.21,10.903-6.21,17.561L0.05,99.979h72.694
	c14.971,0,27.138-12.397,27.138-27.63V27.625v-0.014l0.168-27.617C100.05-0.006,82.107-0.021,72.744-0.021z"/>
</g></g><g transform="translate(868,62) scale(0.93, 0.93)"><g transform="" style="fill: rgb(226, 73, 73);">
<g>
</g>
<path d="M72.744-0.021H27.23c-2.341,0-4.612,0.297-6.771,0.875C15.679,2.11,11.418,4.648,8.04,8.09
	c-0.617,0.621-1.206,1.284-1.752,1.96c-3.883,4.767-6.21,10.903-6.21,17.561L0.05,99.979h72.694
	c14.971,0,27.138-12.397,27.138-27.63V27.625v-0.014l0.168-27.617C100.05-0.006,82.107-0.021,72.744-0.021z"/>
</g></g><g transform="translate(62,868) scale(0.93, 0.93)"><g transform="" style="fill: rgb(226, 73, 73);">
<g>
</g>
<path d="M72.744-0.021H27.23c-2.341,0-4.612,0.297-6.771,0.875C15.679,2.11,11.418,4.648,8.04,8.09
	c-0.617,0.621-1.206,1.284-1.752,1.96c-3.883,4.767-6.21,10.903-6.21,17.561L0.05,99.979h72.694
	c14.971,0,27.138-12.397,27.138-27.63V27.625v-0.014l0.168-27.617C100.05-0.006,82.107-0.021,72.744-0.021z"/>
</g></g></g></svg>